<svg width="48" height="48" viewBox="0 0 48 48" fill="none" xmlns="http://www.w3.org/2000/svg">
<rect width="48" height="48" rx="12" fill="url(#grad)"/>
<path d="M24 17C20.69 17 18 19.69 18 23C18 26.31 20.69 29 24 29C27.31 29 30 26.31 30 23C30 19.69 27.31 17 24 17ZM24 27C22.07 27 20.5 25.43 20.5 23.5C20.5 21.57 22.07 20 24 20C25.93 20 27.5 21.57 27.5 23.5C27.5 25.43 25.93 27 24 27Z" fill="white"/>
<circle cx="31" cy="17" r="2" fill="white"/>
<defs>
<linearGradient id="grad" x1="0" y1="0" x2="48" y2="48" gradientUnits="userSpaceOnUse">
<stop stop-color="#F58529"/>
<stop offset="0.5" stop-color="#DD2A7B"/>
<stop offset="1" stop-color="#8134AF"/>
</linearGradient>
</defs>
</svg>
