<svg width="48" height="48" viewBox="0 0 48 48" fill="none" xmlns="http://www.w3.org/2000/svg">
<rect width="48" height="48" rx="12" fill="black"/>
<path d="M31 18.5C29.2 18.5 27.7 17.2 27.3 15.5H24.5V28.3C24.5 29.9 23.2 31.2 21.6 31.2C20 31.2 18.7 29.9 18.7 28.3C18.7 26.7 20 25.4 21.6 25.4C22 25.4 22.5 25.5 22.9 25.7V22.7C22.4 22.6 21.9 22.5 21.4 22.5C17.8 22.5 14.9 25.4 14.9 29C14.9 32.6 17.8 35.5 21.4 35.5C25 35.5 27.9 32.6 27.9 29V21.2C29.1 22.1 30.5 22.6 32 22.6V18.5H31Z" fill="white"/>
</svg>
